<?xml version="1.0" encoding="utf-8"?>
<!-- Generator: Adobe Illustrator 24.1.2, SVG Export Plug-In . SVG Version: 6.00 Build 0)  -->
<svg version="1.1" id="Слой_1" xmlns="http://www.w3.org/2000/svg" xmlns:xlink="http://www.w3.org/1999/xlink" x="0px" y="0px"
	 viewBox="0 0 315.29 47.53" style="enable-background:new 0 0 315.29 47.53;" xml:space="preserve">
<style type="text/css">
	.st0{fill:#B8BEBF;}
</style>
<g>
	<path class="st0" d="M4.76,11.97H0.14l3.67-4.43h32.51v28.6h4.85l-3.9,4.71H24.03V11.97h-7v24.18h4.85l-3.9,4.71H4.76V11.97z
		 M11.66,36.15V11.97h-1.52v24.18H11.66z M30.94,36.15V11.97h-1.52v24.18H30.94z"/>
	<path class="st0" d="M58.26,41.43c-9.61-1-15.99-7.57-15.99-17.28c0-9.66,6.38-16.18,15.99-17.18v-2l5.33-1.81v3.81
		c9.66,1,15.99,7.52,15.99,17.18c0,9.76-6.33,16.28-15.99,17.28v1.28l-5.33,1.81V41.43z M49.78,31.58v-14.8
		c-1.33,1.95-2.05,4.43-2.05,7.38C47.74,27.1,48.45,29.58,49.78,31.58z M58.26,11.78c-1.09,0.14-2.14,0.43-3.09,0.81v23.22
		c0.95,0.38,2,0.62,3.09,0.81v-5.33l5.33-1.81v7.14c1.09-0.19,2.14-0.43,3.09-0.81V12.59c-0.95-0.38-2-0.67-3.09-0.81v5l-5.33,1.86
		V11.78z M72.06,31.58c1.33-1.95,2.05-4.47,2.05-7.42c0-2.95-0.71-5.43-2.05-7.42V31.58z"/>
	<path class="st0" d="M99.95,41.53c-9.57-0.48-16.09-7.19-16.09-17.37c0-10.52,7.09-17.32,16.99-17.32c4.05,0,7.76,1.14,10.61,3.09
		l1.24-2.38h5.9l-8.52,15.42h-5.52l4.66-8.8c-2.14-1.67-5.19-2.57-8.19-2.57c-1.43,0-2.71,0.19-3.95,0.57V36.1
		c0.9,0.33,1.86,0.52,2.86,0.62v-5.43l5.33-1.81v6.85c2.76-0.71,5.33-2.28,7.66-4.62l3.05,3.66c-2.9,3.09-6.66,5.04-10.71,5.81v1.52
		l-5.33,1.81V41.53z M91.72,15.92c-1.52,2.05-2.38,4.81-2.38,8.09c0,3.33,0.86,6.04,2.38,8.14V15.92z"/>
	<path class="st0" d="M123.41,11.97h-4.62l3.62-4.43h26.7v0.1l0.05-0.1h5.09l-4.95,10.14h-5.09l2.81-5.71h-11.33v10.28h10.18v4.71
		h-10.18v9.19h10.9l2.71-4.85h5.09l-5.33,9.57h-25.65V11.97z M130.32,36.15V11.97h-1.52v24.18H130.32z"/>
	<path class="st0" d="M158.45,7.54h13.23v16.85l19.04-19.47v31.22h4.85l-3.9,4.71h-13.23V24.01L159.4,43.48V11.97h-4.62L158.45,7.54
		z M166.3,29.91V11.97h-1.52v19.47L166.3,29.91z M185.52,0.07h5.95l-11.09,11.37h-5.95L185.52,0.07z M185.33,36.15V16.97l-1.52,1.52
		v17.66H185.33z"/>
	<path class="st0" d="M207.71,7.54h13.14l11.71,28.6h4.62l-5.85,11.23h-5.57l3.38-6.52h-26.89l2.57,6.52h-5.57l-4.43-11.23h4.14
		l11.71-21.13l-1.24-3.05h-5.38L207.71,7.54z M219.08,36.15l-6.19-15.52l-8.57,15.52H219.08z M226.6,36.15l-9.9-24.18h-1.38
		l9.66,24.18H226.6z"/>
	<path class="st0" d="M251.25,41.43c-9.61-1-15.99-7.57-15.99-17.28c0-9.66,6.38-16.18,15.99-17.18v-2l5.33-1.81v3.81
		c9.66,1,15.99,7.52,15.99,17.18c0,9.76-6.33,16.28-15.99,17.28v1.28l-5.33,1.81V41.43z M242.78,31.58v-14.8
		c-1.33,1.95-2.05,4.43-2.05,7.38C240.74,27.1,241.45,29.58,242.78,31.58z M251.25,11.78c-1.09,0.14-2.14,0.43-3.09,0.81v23.22
		c0.95,0.38,2,0.62,3.09,0.81v-5.33l5.33-1.81v7.14c1.09-0.19,2.14-0.43,3.09-0.81V12.59c-0.95-0.38-2-0.67-3.09-0.81v5l-5.33,1.86
		V11.78z M265.06,31.58c1.33-1.95,2.05-4.47,2.05-7.42c0-2.95-0.71-5.43-2.05-7.42V31.58z"/>
	<path class="st0" d="M278.53,11.97h-4.62l3.67-4.43h13.23v14.71h7.23V11.97h-4.62l3.67-4.43h13.23v28.6h4.85l-3.9,4.71h-13.23
		v-13.9h-7.23v9.19h4.85l-3.9,4.71h-13.23V11.97z M285.43,36.15V11.97h-1.52v24.18H285.43z M304.94,36.15V11.97h-1.52v24.18H304.94z
		"/>
</g>
</svg>
