<svg id="Слой_1" data-name="Слой 1" xmlns="http://www.w3.org/2000/svg" viewBox="0 0 1958.38 1607.21"><defs><style>.cls-1{fill:#f2f2f2;}</style></defs><path class="cls-1" d="M30.6,1.5A2.78,2.78,0,0,1,28.1,3C25.4,3,15,8.9,11.5,12.5S2,26.4,2,29a3.07,3.07,0,0,1-1,2.5c-1.3.8-1.3,19.2,0,20A2.94,2.94,0,0,1,2,54c0,5.2,10.1,18.2,17.5,22.6,8.7,5,4.7,4.9,115.5,5.5,57.5.3,106.1.9,108,1.3a79.92,79.92,0,0,1,19.5,6.1,104.46,104.46,0,0,1,40.4,30.3c6.6,8,13.7,19.9,15.2,25.7.8,2.9,1.9,7,3.9,14,.6,1.9,1.5,5.2,2.1,7.2,1.3,4.8,2.8,9.9,4,14,.5,1.8,1.4,4.9,1.9,6.8s1.5,5.1,2,7,1.4,5,1.9,6.7,2.4,8,4.1,13.8,3.6,12,4.1,13.7,1.3,4.8,1.8,6.5,2.4,8,4.1,13.8,3.6,12,4.1,13.7,1.3,4.8,1.8,6.5,2.4,8,4.1,13.8,3.6,12.1,4.1,14c1.7,6.1,2.7,9.2,5.9,20,1.7,5.8,3.5,11.8,4,13.5s1.8,6.1,3,10,2.6,8.6,3.1,10.5c1.7,6.1,2.7,9.2,5.9,20,1.7,5.8,3.6,12.1,4.1,14,1.7,6.1,2.7,9.2,5.9,20,1.7,5.8,3.6,12,4.1,13.7s1.3,4.8,1.8,6.5,2.4,8,4.1,13.8,3.5,11.8,4,13.5,1.8,6.1,3,10,2.6,8.6,3.1,10.5c1.7,6.1,2.7,9.2,5.9,20,1.7,5.8,3.6,12,4.1,13.7s1.3,4.8,1.8,6.5,2.4,8,4.1,13.8,3.6,12,4.1,13.7,1.3,4.8,1.8,6.5,2.4,8,4.1,13.8,3.6,12.1,4.1,14c1.7,6.1,2.7,9.2,5.9,20,1.7,5.8,3.6,12,4.1,13.7s1.3,4.8,1.8,6.5,2.8,9.6,5.1,17.3,4.6,15.6,5.1,17.5c1.7,6.1,2.7,9.2,5.9,20,1.7,5.8,3.6,12,4.1,13.7s1.4,4.9,1.9,6.8,1.5,5.1,2,7,1.4,5,1.9,6.7,2.8,9.6,5.1,17.3,4.6,15.5,5.1,17.2,1.4,4.9,1.9,6.8,1.5,5.2,2.1,7.2c1.9,6.8,2.7,9.6,6.9,23.8,2.3,7.7,4.6,15.6,5.1,17.5s1.4,5,2,6.7c1.2,4.2,2.6,9.3,4,14,.5,2.1,1.4,5.1,1.9,6.8s1.3,4.6,1.9,6.5,1.4,5.1,2,7,1.4,5.1,2,7,1.4,5.1,2,7,1.5,5.2,2,7.2,1.6,5.5,2.2,7.5,1.4,5.3,2,7,1.4,4.9,1.9,6.8,1.5,5.1,2,7,1.5,5.2,2.1,7.2,1.4,5.3,2,7,1.4,5,2,7,1.4,5.1,1.9,6.8c1.5,5.2,3.1,10.9,4,14.5.5,1.9,1.4,5.3,2,7.5s1.5,5.6,2,7.5,1.8,7.1,3,11.5,2.6,9.8,3,12,1.3,5.8,1.9,8c.9,3.7,1.4,5.6,4.1,15,.6,1.9,1.4,5,1.9,6.7,5.1,18.5,16.8,46.6,28.3,68.1,26.9,50,66.8,88.4,111.3,107.2,2.2.9,4.9,2.1,6,2.6s5.2,1.8,9,3,7.9,2.5,9,3c3,1.1,13.2,3.2,25.5,5.2,5.7.9,104.4,1.2,405.5,1.2h398l6.8-3.2c20.1-9.6,29.1-33.9,19.7-53.8a42.25,42.25,0,0,0-22.9-21.9c-4.1-1.6-28.2-1.7-391-1.7-331.9.1-388.4-.1-399.1-1.4-14.1-1.6-22.2-3.3-28-5.7-1.4-.6-3.4-1.4-4.5-1.8-14.2-5.5-28.9-15.3-41.5-28-7.4-7.5-21-24-21-25.6a28.83,28.83,0,0,0-2.9-4.7c-5.9-8.6-15.6-27.5-20.2-39.5-.5-1.2-1.3-3.2-1.8-4.5s-1.5-4-2.2-6.2a21.37,21.37,0,0,0-2.3-5.3,1.76,1.76,0,0,1-.3-1.9c.4-.3,198.2-.5,439.6-.4,437.1.2,457.3.1,481.1-3.1,39.8-5.3,66-19,86.7-45.6,14.3-18.2,38.1-60.6,56-99.7,2.3-5,6-12.9,8.2-17.8,10.6-22.6,12.1-25.9,12.1-26.2s1.7-4.1,3.9-8.7,8-17.5,13.1-28.8,11.4-25.2,14-31q9.15-19.95,52.4-117.5c12.5-28.1,24-53.8,25.7-57.3a73.17,73.17,0,0,0,2.9-6.8c0-.2,1.8-4.3,4-9s4-8.8,4-9c0-.4,53.4-120.6,58.9-132.7,1.7-3.7,3.1-6.9,3.1-7.1s1.8-4.4,4.1-9.3c4-8.8,4.8-10.6,8.9-19.8,2.1-4.9,4.2-9.5,9.3-20.5,6-13.2,7.7-17.1,7.7-18.3a4.89,4.89,0,0,1,.8-2.3c.5-.5,1.9-4.3,3.1-8.4s2.7-8.4,3.1-9.5c1.9-5.1,3-9.3,3-11.3a3.49,3.49,0,0,1,.9-2.6c.5-.3,1.1-2.3,1.4-4.3s1.1-6.3,1.7-9.3c2.7-13.5,3.4-21.7,3.4-38.5,0-9.9-.5-20.5-1.1-23.5-2.5-11.6-3.2-14.3-5.4-19.8-.5-1.2-1.3-3.3-1.9-4.7a65.27,65.27,0,0,0-7.4-14c-9.4-14.2-20.1-23.9-34.9-31.5-12.6-6.4-19.7-8.6-39.2-12-7.6-1.3-1276.6-1.5-1281-.2a41.18,41.18,0,0,0-26.2,22c-3.4,6.7-3.8,8.6-4.2,16.5-.2,7.3.1,10,1.9,15,2.8,7.5,6.7,13.4,12,17.9,3.6,3.2,6.4,4.7,15.5,8.9,2.5,1.2,101.7,1.4,640.2,1.6l637.3.2,4.6,2.3c7.4,3.7,10,10.7,9,24.9-.7,12.1-1.9,18.8-5.4,31.9-1.4,5.2-6.1,19.1-7.7,22.5-3.2,7.3-6.7,15-9.9,21.7-1.8,4-4.5,9.8-5.9,12.8s-3.9,8.6-5.7,12.5-5.8,12.8-9,20-7,15.7-8.5,19-3.3,7.3-4,9-3.2,7-5.4,11.8-4.1,9.1-4.1,9.3-1.8,4.3-4,9-4,8.8-4,9-1.1,2.7-2.4,5.6-3.4,7.5-4.6,10.3-2.8,6.3-3.5,8-13.1,29.5-27.5,62-27.4,61.8-29.1,65.3a73.17,73.17,0,0,0-2.9,6.8c0,.2-1.8,4.3-4,9s-4,8.8-4,9-1.8,4.3-4,9-4,8.8-4,9-1.4,3.4-3.1,7.1-8.4,18.7-14.9,33.3c-13,29.2-15.6,35-20.6,45.8-1.9,4.1-3.4,7.5-3.4,7.7s-2,4.5-4.4,9.7-5.8,12.7-7.6,16.8c-2.8,6.3-12.1,26.9-23.3,51-19.4,42.2-33.6,69-48.4,91.2-8.8,13.3-17,18.1-36.9,21.7-4.3.8-138.7,1.1-469,1.1H623.5l-1.2-2.7a42.35,42.35,0,0,1-1.7-5.8c-.9-3.8-2.2-8.9-3.6-14-.6-2.2-1.5-5.6-2-7.5s-1.4-5.3-2-7.5-1.5-5.6-2-7.5-1.4-5.3-2-7.5-1.5-5.6-2-7.5-1.4-5.3-2-7.5-1.5-5.6-2-7.5-1.5-6.1-2.4-9.3c-1.4-5.1-3.3-11.9-5.6-20.2-.5-1.7-1.5-5.5-2.3-8.5s-2.3-8.2-3.2-11.5c-2.2-7.9-3-10.8-4.9-17.7-.9-3.2-2.3-8.3-3.1-11.3s-2.2-8-3-11-2.2-8.1-3.1-11.3-1.9-7.1-2.4-8.7-1.5-5.6-2.4-8.8-2.3-8.3-3.2-11.5-2-7.2-2.5-9-1.3-4.7-1.8-6.5-1.7-5.9-2.6-9.2-2.5-9.2-3.6-13-2.4-8.8-3-11-1.5-5.1-1.9-6.5c-.8-2.5-1.4-4.7-5-18s-4.2-15.5-5-18c-.4-1.4-1.3-4.3-1.9-6.5s-2.4-9-4.1-15c-3.4-12.3-4.9-17.6-6.1-22-.5-1.7-2.7-9.5-4.9-17.5-4.2-15.2-5.7-20.5-7.1-25.5-.5-1.7-2.3-8-3.9-14-4.6-16.9-5.2-18.8-6-21.5-.8-2.5-1.4-4.7-5-18s-4.2-15.5-5-18c-.4-1.4-1.3-4.3-1.9-6.5S493.2,426,491,418s-4.5-16.3-5.1-18.5-1.5-5.1-1.9-6.5-1.3-4.3-1.9-6.5S479.2,376,477,368s-4.5-16.3-5.1-18.5-1.5-5.1-1.9-6.5-1.3-4.3-1.8-6.5-2-7.2-3.1-11-3-10.4-4.1-14.5c-3.9-14.4-4.2-15.5-5-18-.4-1.4-1.3-4.3-1.8-6.5s-2-7.2-3.1-11-3-10.4-4.1-14.5c-3.9-14.4-4.2-15.5-5-18-.4-1.4-1.3-4.5-2-7s-1.6-5.6-2-7-1.3-4.3-1.9-6.5-1.9-7.2-3-11-2.7-9.7-3.6-13c-2.4-8.5-3.5-12.6-4.5-16-.5-1.7-1.3-4.6-1.9-6.5s-1.9-6.9-3.1-11-3-10.9-4.1-15c-2.1-7.7-3.3-12.1-5-17.8-1-3.5-1.7-6.1-4.8-17.2-1.2-4.1-3-10.9-4.2-15-3.3-11.7-3.6-13.1-5.5-20-5.3-20.3-20.9-41.9-38.7-53.8C349.9,21,334.1,13,331.7,13a2.87,2.87,0,0,1-2.2-1c-.3-.6-1.9-1-3.5-1s-3.2-.5-3.5-1-1.9-1-3.4-1a6.9,6.9,0,0,1-3.7-.9c-.5-.5-2.9-1.2-5.4-1.5S302.6,5.5,299,5s-11.9-1.4-18.4-1.8c-7.6-.6-12.1-1.3-12.4-2C267.9.3,238.7,0,149.5,0,45.3,0,31.1.2,30.6,1.5Z" transform="translate(-0.03 0)"/><path class="cls-1" d="M738,1228a34.08,34.08,0,0,1-6.2.9c-4.3.1-13,2-24.3,5.2-52.3,15-94.9,50.8-119,100-8.6,17.8-13.4,33.4-17.6,57.3-1.6,9.5-1.6,41,0,51.6,6.9,44.3,24.7,79.9,55,110a188.67,188.67,0,0,0,65.1,42.2c1.4.6,3.3,1.4,4.2,1.9a10,10,0,0,0,3.7.9c1.1,0,2.3.4,2.6,1s1.9,1,3.5,1,3.1.4,3.4.9,2,1.1,3.8,1.4,5.6,1.1,8.3,1.7c11.4,2.5,21.1,3.3,40,3.2,21.7,0,32-1.1,48.5-5.2,2.5-.6,5.7-1.4,7.3-1.7s3-.9,3.3-1.4a3.23,3.23,0,0,1,2.5-.9,10,10,0,0,0,3.7-.9c1.6-.8,4-1.8,9.5-4,23.9-9.5,50.2-28.4,68.7-49.3,23.5-26.6,38.9-58.7,45.2-94.8,1.6-8.5,1.6-54.5,0-63-7.7-43.7-28.7-81.7-60.7-110.2a218.68,218.68,0,0,0-31.5-23.2c-8.6-5-27.3-13.6-29.5-13.6a2.77,2.77,0,0,1-2-1c-.3-.6-1.7-1-3-1s-2.6-.4-2.9-.9-1.8-1.1-3.3-1.4-4.8-1.1-7.3-1.7c-7.5-1.9-13.2-3.1-19.5-4.1C781.9,1227.6,741.3,1226.9,738,1228Zm42.7,79.1c9.4,2.2,12.8,3.1,14.5,4a8.07,8.07,0,0,0,2.8.9c.6,0,4.9,1.8,9.6,4,29.7,13.9,53.2,42.1,61.2,73.5,2.8,11.1,3.2,14.6,3.2,28s-.4,16.9-3.2,28c-8.6,33.7-34.7,63.4-67.3,76.6A193.53,193.53,0,0,1,782,1528c-7.2,1.8-35.7,1.9-42.5.1-11.6-2.9-13.1-3.3-14.7-4.2a8.07,8.07,0,0,0-2.8-.9c-1.1,0-13.2-5.7-18.6-8.8-16.3-9.3-36.3-31-43.7-47.5-4.4-9.6-5.7-13.3-7.5-20.2-.6-2.2-1.6-6-2.2-8.5-1.6-6-1.6-34.3,0-41.1,1.5-6.4,4.7-17.6,5.9-20.4,8.8-21.1,25.1-40.9,43.3-52.8,4.8-3.1,8.9-5.7,9.2-5.7a73.17,73.17,0,0,0,6.8-2.9c8.2-3.7,12.8-5.2,24.3-8C745.2,1305.8,775,1305.8,780.7,1307.1Z" transform="translate(-0.03 0)"/><path class="cls-1" d="M1515.9,1227.5a38.88,38.88,0,0,1-7.5,1.5c-6.5.8-9.9,1.5-19.9,3.8-4,.9-18.2,5.5-22,7.1-7.1,3-24.7,11.9-28.2,14.3a26.61,26.61,0,0,1-4.9,2.8c-1.7,0-20.7,15.2-29.3,23.5-26.2,25.3-41.8,52.3-53.1,92-.4,1.6-1.3,6.1-1.9,10s-1.6,9.5-2.1,12.6c-1.3,7.2-1.3,37.6,0,44.8.5,3.1,1.4,8.7,2.1,12.6,1.3,8.4,1.6,9.4,6.9,25.9,5,15.4,15.3,36.2,24.8,49.6,7.7,11,30.2,34,41.2,42.2,17.4,12.9,40.6,24.5,60,29.9,20.8,5.9,30.4,7.1,55,7.1,19.3,0,26.9-.6,40-3.2,3-.6,7-1.3,8.8-1.7s3.5-.9,3.8-1.4,1.6-.9,2.9-.9,2.7-.5,3-1,1.7-1,3-1,2.7-.4,3-1a3.5,3.5,0,0,1,2.6-1,10,10,0,0,0,3.7-.9c.9-.6,6.4-3.2,12.2-5.9,20.9-9.9,35.5-20.4,53.5-38.6a186.78,186.78,0,0,0,50.4-92.6c3.2-14.7,3.6-18.6,3.6-40.5s-.4-25.8-3.6-40.5c-11-49.5-42.5-94.7-83.9-120.4-14.3-8.9-29.9-16.5-40.3-19.8a290.87,290.87,0,0,0-35.2-8.4C1558.8,1227.6,1516.6,1226.7,1515.9,1227.5Zm41.5,79.6c2.2.6,5.9,1.5,8.1,2.1,12.1,3.1,20.3,6.9,32.5,14.7,19.3,12.4,35.7,32.7,43.7,54.1,2,5.3,2.6,7.5,5.5,18.5,1.7,6.8,1.7,36.6-.1,42.5-.7,2.5-1.7,6.3-2.3,8.5-8.3,32-35.3,62.3-66.3,74.2-7.7,2.9-9.8,3.6-21,6.4-6.6,1.7-35.7,1.8-41.3.1-2.3-.7-6.1-1.7-8.4-2.3-7.4-2-10-3-20.3-8a110.79,110.79,0,0,1-53.4-56.4c-4.7-11.2-4.9-11.6-5.6-15-.3-1.7-1.1-5.5-1.8-8.5-1.5-7.3-1.5-34.1,0-41,.7-3,1.5-6.9,1.8-8.5a33.71,33.71,0,0,1,1.5-5c.4-1.1,1.8-4.7,3.1-8,6.8-17.9,20.7-35.5,38.2-48.6,7.5-5.6,25-14.9,28.1-14.9a2.82,2.82,0,0,0,2.1-1c.3-.6,1.6-1,2.7-1a22.71,22.71,0,0,0,5.2-.9c1.7-.6,4.7-1.4,6.6-1.9C1520.9,1305.8,1552.4,1305.8,1557.4,1307.1Z" transform="translate(-0.03 0)"/></svg>