<?xml version="1.0" encoding="utf-8"?>
<!-- Generator: Adobe Illustrator 24.1.2, SVG Export Plug-In . SVG Version: 6.00 Build 0)  -->
<svg version="1.1" id="Слой_1" xmlns="http://www.w3.org/2000/svg" xmlns:xlink="http://www.w3.org/1999/xlink" x="0px" y="0px"
	 viewBox="0 0 350.2 350.2" style="enable-background:new 0 0 350.2 350.2;" xml:space="preserve">
<style type="text/css">
	.st0{fill:none;}
	.st1{fill:#1F3740;}
</style>
<g>
	<path class="st0" d="M0,175.1C0,117.2,0,59.3,0,1.3C0,0.2,0.3,0,1.3,0C117.2,0,233,0,348.8,0c1.1,0,1.3,0.3,1.3,1.3
		c0,115.8,0,231.7,0,347.5c0,1.1-0.3,1.3-1.3,1.3c-115.8,0-231.7,0-347.5,0c-1.1,0-1.3-0.3-1.3-1.3C0,290.9,0,233,0,175.1z
		 M173.9,11.4c-2,0.1-4.6,0-7.1,0.2c-3.1,0.3-6.1,0.5-9.1,1c-6.2,1-12.2,2.5-18.1,4.6c-8,2.9-15.7,6.5-22.8,11.2
		c-4.4,2.9-8.7,6.1-12.6,9.7c-5.1,4.6-9.8,9.6-13.9,15c-3.2,4.2-6,8.6-8.6,13.2C78.4,72,75.9,77.9,73.9,84c-1.6,4.9-2.8,9.9-3.7,15
		c-0.9,5.3-1.3,10.7-1.6,16c-0.1,1.8,0.1,3.7,0.2,5.5c0.1,2.9,0.5,5.8,1,8.7c1.2,6.3,2.8,12.5,4.9,18.6c2.1,6.3,4.4,12.5,6.9,18.6
		c3.1,7.6,6.4,15,9.9,22.4c5.9,12.3,12.2,24.4,18.8,36.3c2.9,5.2,5.7,10.5,8.7,15.6c5.2,8.9,10.4,17.8,15.8,26.6
		c7.1,11.6,14.3,23.1,21.7,34.5c5.3,8.2,10.8,16.3,16.2,24.4c1.5,2.3,1.5,2.3,3.1,0.2c0.2-0.3,0.5-0.6,0.7-0.9
		c4.9-7.4,9.9-14.8,14.8-22.3c6.3-9.7,12.5-19.4,18.5-29.3c4.5-7.3,8.9-14.7,13.3-22c3.9-6.5,7.6-13.1,11.4-19.7
		c4.8-8.5,9.5-17.1,14-25.8c5.6-10.8,10.9-21.7,15.8-32.8c2.7-6.2,5.3-12.4,7.6-18.8c2.5-7,4.8-14.1,6.4-21.3c1.2-5.6,2-11.2,2-16.9
		c0-2.9-0.3-5.8-0.5-8.6c-0.3-4.4-0.9-8.8-1.9-13c-2.3-9.8-5.6-19.3-10.5-28.2c-4.3-7.8-9.4-14.9-15.4-21.4
		c-3.9-4.2-8.2-8-12.7-11.6c-8.6-6.7-18-11.9-28.2-15.7C199.4,13.5,187.1,11.2,173.9,11.4z"/>
	<path class="st1" d="M173.9,11.4c13.2-0.2,25.5,2.1,37.4,6.5c10.2,3.8,19.6,9,28.2,15.7c4.5,3.6,8.8,7.4,12.7,11.6
		c6,6.5,11.1,13.6,15.3,21.4c4.9,8.9,8.2,18.3,10.5,28.2c1,4.3,1.6,8.6,1.9,13c0.2,2.9,0.5,5.8,0.5,8.6c0,5.7-0.8,11.4-2,16.9
		c-1.6,7.3-3.9,14.3-6.4,21.3c-2.3,6.4-4.9,12.6-7.6,18.8c-4.8,11.1-10.2,22.1-15.8,32.8c-4.5,8.7-9.2,17.3-14,25.8
		c-3.8,6.6-7.5,13.2-11.4,19.7c-4.4,7.4-8.8,14.7-13.3,22c-6,9.8-12.2,19.6-18.5,29.3c-4.9,7.5-9.9,14.9-14.8,22.3
		c-0.2,0.3-0.4,0.6-0.7,0.9c-1.6,2-1.6,2.1-3.1-0.2c-5.4-8.1-11-16.2-16.2-24.4c-7.3-11.4-14.6-23-21.7-34.5
		c-5.4-8.8-10.6-17.7-15.8-26.6c-3-5.1-5.8-10.4-8.7-15.6c-6.7-11.9-12.9-24-18.8-36.3c-3.6-7.3-6.8-14.8-9.9-22.4
		c-2.5-6.1-4.8-12.3-6.9-18.6c-2-6.1-3.7-12.3-4.9-18.6c-0.5-2.9-0.9-5.8-1-8.7c-0.1-1.8-0.3-3.7-0.2-5.5c0.4-5.3,0.7-10.7,1.6-16
		c0.9-5.1,2.1-10.1,3.7-15c2-6.1,4.5-11.9,7.7-17.5c2.6-4.6,5.4-9,8.6-13.2c4.1-5.5,8.8-10.5,13.9-15c4-3.5,8.2-6.8,12.6-9.7
		c7.1-4.7,14.8-8.4,22.8-11.2c5.9-2.1,11.9-3.6,18.1-4.6c3-0.5,6.1-0.8,9.1-1C169.3,11.4,171.9,11.5,173.9,11.4z M230,110.4
		c-0.4-15.5-6.6-29.5-19.1-40.6c-10.4-9.2-22.7-13.8-36.5-13.8c-14.6,0-27.6,5.2-38.2,15.3c-10.6,10.1-16.5,22.7-17.1,37.4
		c-0.7,17.8,5.8,32.8,19.1,44.6c10.3,9.1,22.6,13.6,36.3,13.6c15.1,0,28.4-5.5,39.1-16.2C224.4,140,229.8,126.8,230,110.4z"/>
	<path class="st0" d="M230,110.4c-0.2,16.4-5.6,29.6-16.3,40.3c-10.7,10.7-24,16.2-39.1,16.2c-13.6,0-25.9-4.5-36.3-13.6
		c-13.4-11.8-19.9-26.8-19.2-44.6c0.6-14.7,6.6-27.3,17.1-37.4c10.6-10.2,23.5-15.3,38.2-15.3c13.8,0,26.1,4.6,36.5,13.8
		C223.4,80.9,229.6,94.9,230,110.4z"/>
</g>
</svg>
