<svg id="Слой_1" data-name="Слой 1" xmlns="http://www.w3.org/2000/svg" viewBox="0 0 368.03 349.3"><defs><style>.cls-1{fill:#bcbcbc;}</style></defs><path class="cls-1" d="M205.19,8.39c1,1.21,2.47.94,3.75,1,6,.24,11.84,1.47,17.69,2.66,3.35.68,6.73,1.29,10,2.14s6.86,1.91,10.22,3.08c5.28,1.84,10.52,3.8,15.65,6a180.68,180.68,0,0,1,24.19,12.77A177.7,177.7,0,0,1,309.67,53c15.86,13.92,29.36,29.8,39.66,48.27a171.88,171.88,0,0,1,14.34,33.15c2.24,7.28,4.21,14.61,5.74,22.07.91,4.41,1.19,8.9,1.9,13.32,1.29,8.06.94,16.15,1.07,24.23a145.77,145.77,0,0,1-.82,14.74c-.48,5.48-1.54,10.84-2.46,16.23a137.33,137.33,0,0,1-3.8,15.27,191.89,191.89,0,0,1-7.93,21.31c-.22.51-.49,1-1,1.9a10.35,10.35,0,0,1,1-4.72,136.65,136.65,0,0,0,4.71-17.82c.93-4.53,2.14-9.06,2.52-13.63C365,222.51,366,217.8,366,213c-.05-8.73.35-17.48-.34-26.2a174.81,174.81,0,0,0-2.81-20c-1.13-5.75-2.76-11.4-4.43-17a178.21,178.21,0,0,0-11.7-29.29,168.26,168.26,0,0,0-30-42.2,191.3,191.3,0,0,0-26.92-23,166.58,166.58,0,0,0-29.39-16.51c-5.72-2.49-11.56-4.68-17.47-6.62a124.63,124.63,0,0,0-15-4.05c-4.8-.93-9.58-2.11-14.43-2.65-3.91-.44-7.81-1.15-11.74-1.23-7.75-.14-15.51-.23-23.26,0-4.41.14-8.8,1-13.2,1.51-4.6.55-9.17,1.37-13.69,2.37-3.89.86-7.77,1.81-11.57,3a196.05,196.05,0,0,0-19.93,7.26,173.16,173.16,0,0,0-19.86,10.23,178,178,0,0,0-35.43,27.9,170.93,170.93,0,0,0-26.95,35.64,178.8,178.8,0,0,0-11.3,23.31,139.37,139.37,0,0,0-6.16,19c-.61,2.58-1.4,5.12-2.08,7.69s-.93,5.4-1.42,8.08a118.52,118.52,0,0,0-2.26,19.46c0,3.86-1,7.71-.59,11.59.66,6.51.19,13.07,1.35,19.57.56,3.16.44,6.43,1.15,9.62C18,237.1,19,244,21.14,250.6c1.59,5,3.13,10,5,14.93a191.17,191.17,0,0,0,17.67,34.93c2.58,4.12,5.65,7.89,8,12.2-2-2.23-4.13-4.39-6.08-6.7a174,174,0,0,1-27.44-44.62,164,164,0,0,1-8.16-24.24C8.53,230.76,7.34,224.4,6.29,218a171.37,171.37,0,0,1-1.83-18.65c-.33-6.21.33-12.39.1-18.58-.2-5.3,1-10.48,1.65-15.71a112.73,112.73,0,0,1,2.12-12c1-4.23,1.93-8.48,3.17-12.64,1.3-4.34,2.77-8.64,4.35-12.9a187.32,187.32,0,0,1,8.31-18.86,181.26,181.26,0,0,1,32-44.69,175.74,175.74,0,0,1,30.2-25,191.43,191.43,0,0,1,33.53-17.62A186.51,186.51,0,0,1,142.19,14c5.16-1.35,10.37-2.42,15.58-3.45,4-.8,8.24-.9,12.37-1.3.78-.08,1.57-.07,2-.87Z" transform="translate(-4.37 -8.39)"/><path class="cls-1" d="M241.81,148.17a51.14,51.14,0,0,1,5.94-8.72,93.27,93.27,0,0,1,18.84-17.8,79.52,79.52,0,0,1,20.12-10.5c2.71-.94,5.56-1.41,8.2-2.58a1.89,1.89,0,0,1,2,0c.72.62.05,1.28-.17,1.91-2.11,6-4.13,12.07-6.35,18-1.9,5.12-3.47,10.35-5.14,15.54-1.56,4.87-3.14,9.73-4.46,14.67-1.66,6.22-3.62,12.36-5.33,18.57-1.22,4.39-2.24,8.83-3.33,13.25-1.16,4.69-2.33,9.38-3.42,14.08q-1.22,5.22-2.24,10.48c-.93,4.67-1.85,9.35-2.66,14.05s-1.49,9.29-2.15,13.94c-.61,4.31-1.19,8.62-1.64,12.94-.3,2.8-.34,5.63-.5,8.44-.14,2.44-.66,2.84-2.8,1.88a182.51,182.51,0,0,0-23.85-8.92,127.38,127.38,0,0,0-16.78-3.81,99.69,99.69,0,0,0-13.9-.73c-2.3,0-3,.56-3,2.77-.27,8.73-1.61,17.37-2.2,26.08-.44,6.44-1.36,12.86-1.73,19.32-.14,2.54.37,2.91,2.87,3.39,3.64.69,7.22,1.65,10.82,2.56,4.07,1,8.12,2.16,12.19,3.18,3.12.78,6.26,1.45,9.39,2.17a145.44,145.44,0,0,0,18.25,2.95,103.17,103.17,0,0,0,20.65-.42,87.78,87.78,0,0,0,12.16-2.5,139.29,139.29,0,0,0,21.4-7.53,223.37,223.37,0,0,0,22.9-11.59,7.08,7.08,0,0,1,2.15-.8,74.3,74.3,0,0,1-6.64,6.64,132.28,132.28,0,0,1-20.77,15.57A107.83,107.83,0,0,1,274.85,326a91.9,91.9,0,0,1-32.73,3.48,140.77,140.77,0,0,1-16.89-2.33c-7.49-1.51-14.86-3.44-22.29-5.17-3.48-.81-6.87-2.05-10.38-2.61-5.83-.94-11.66-1.83-17.54-2.45a143.09,143.09,0,0,0-21.3-.52c-5.24.24-10.49.85-15.72,1.55-4.67.62-9.27,1.62-13.91,2.35-4.84.78-9.6,2.1-14.4,3.18-2.94.65-5.86,1.39-8.82,1.92-5.87,1.06-11.67,2.69-17.72,2.48-.48,0-1-.06-1.39-.09a.65.65,0,0,1,.41-.93c10.84-3.65,20.9-9.15,31.47-13.43a169.86,169.86,0,0,1,21.23-7.18,135.26,135.26,0,0,1,16.2-3.42,91.81,91.81,0,0,1,15.56-1.2c5.2.2,10.44-.34,15.63.46,1.46.23,1.78-.65,1.63-1.75-1-7.53-1.28-15.13-2.19-22.68-.54-4.46-1-9-1.22-13.45-.14-3.27-.84-6.43-1-9.66a1.52,1.52,0,0,0-1.77-1.62c-4.64.09-9.26-.19-13.91.6a144.37,144.37,0,0,0-15,3.19,177.42,177.42,0,0,0-18.64,6.41c-3.06,1.24-6.13,2.45-9.07,4-1.14.59-1.23-.29-1.21-1,.09-2.78-.75-5.46-.84-8.19-.21-6.27-1.31-12.44-2.19-18.61-.91-6.51-2.16-13-3.41-19.47-1-5.37-2.2-10.71-3.26-16.07-.92-4.66-2.27-9.24-3.42-13.86-1.08-4.34-2.1-8.71-3.25-13-1.29-4.87-2.64-9.74-4.06-14.57q-2.62-8.88-5.43-17.69c-2.93-9.22-6-18.4-9.32-27.47-.9-2.43-1.65-4.92-2.65-7.31-.63-1.49,0-1.69,1.15-1.42a68.45,68.45,0,0,1,7.87,2.2,91.82,91.82,0,0,1,18.66,9.17,94.35,94.35,0,0,1,17.2,14.57,83.4,83.4,0,0,1,9,11.42c.37.57,1.15,1.17.65,1.86s-1.1-.19-1.65-.33c-5.15-1.35-10.34-2.56-15.42-4.1-3.56-1.08-7.14-2.05-10.72-3-.4-.1-.82-.42-1.2-.13-.54.44,0,.9.09,1.34,1.94,6,4,11.93,5.8,17.94,1.18,3.87,2.08,7.83,3.15,11.74,1.12,4.11,2.35,8.2,3.45,12.32s2.09,8.41,3.26,12.58c1.25,4.43,2.31,8.92,3.55,13.36,1.06,3.83,2.1,7.69,3.15,11.53a102.28,102.28,0,0,0,6,17.44,4.62,4.62,0,0,0,4.9,2.88c5.14-.32,10.07-1.72,15.1-2.66,5.85-1.1,11.53-2.88,17.34-4.14,1.44-.32,2.73-1.13,4.25-1.19.61,0,.88-.65,1-1.24a4.65,4.65,0,0,0,.08-1.05c-.29-6.91.36-13.8.47-20.71.34-22.07.28-44.14.39-66.21,0-8.39.11-16.78.11-25.18,0-1.39.4-2.77.48-4.17s-.36-2.25-2.15-1.52c-2.45,1-4.76,2.37-7.69,2.87,6.83-21.25,12.8-42.58,19.1-63.93.8.17.89.9,1,1.52,2,7.74,4.33,15.35,6.59,23,2.09,7,4,14.15,6.15,21.2,1.7,5.69,3.32,11.41,5.42,17,.15.41.33.82,0,1.19s-.73,0-1.09-.14c-2.25-1-4.52-1.86-6.76-2.86-.89-.39-1.34-.19-1.51.73a3.33,3.33,0,0,0,0,.63c0,10.65-.12,21.31.07,32,0,2.73.13,5.48.18,8.22.49,25.23.85,50.46.66,75.7,0,1.93.38,2.81,2.64,3.36,5.69,1.41,11.37,2.95,17.09,4.27a114.64,114.64,0,0,0,11.34,2.36c2.36.29,4.65,1,7.07,1a4.57,4.57,0,0,0,4.64-2.59A73.8,73.8,0,0,0,247.55,226c1.62-5.37,3.14-10.76,4.61-16.16,1.14-4.18,2.11-8.4,3.21-12.59,1.43-5.41,2.93-10.8,4.38-16.2s2.81-10.69,4.29-16c1.06-3.78,2.25-7.51,3.39-11.27,1.25-4.15,2.38-8.33,4-12.36.44-1.06-.2-1.53-1.39-1.19-3,.86-6.09,1.63-9.13,2.49-4,1.14-8.06,2.33-12.1,3.49C246.72,146.82,244.57,147.4,241.81,148.17Z" transform="translate(-4.37 -8.39)"/><path class="cls-1" d="M311.38,320.18a49.39,49.39,0,0,1-8.14,10.52A85.7,85.7,0,0,1,259.56,356c-8.64,2.12-17.36,1.71-26.05,1.51-4.87-.1-9.7-1.35-14.52-2.37-10.85-2.3-21-6.67-31.21-10.65a114.5,114.5,0,0,0-19-5.3,128.55,128.55,0,0,0-29.14-2.29c-4.9.15-9.86.14-14.68,1.4a14.14,14.14,0,0,1-2.36.13c1.22-1.58,2.88-1.68,4.13-2,4.52-1.2,9-2.45,13.68-3.22a117.4,117.4,0,0,1,22.05-1.79,121.5,121.5,0,0,1,16.13,1.68c4.8.77,9.46,2,14.13,3.22s9.5,2.89,14.29,4.19c5.07,1.39,10.2,2.51,15.38,3.48,2.49.47,5,.67,7.48,1.11,7.71,1.38,15.49,1.16,23.17.56a84.93,84.93,0,0,0,26.36-6.87c11.16-4.7,21.27-11.17,31.14-18.07C310.8,320.53,311.09,320.36,311.38,320.18Z" transform="translate(-4.37 -8.39)"/></svg>